PathFileType	4	(X/Y/Z)	C:\Users\°ÂÌØÂü\Desktop\20201223\Trimmed_bx_n_0_901.trc
DataRate	CameraRate	NumFrames	NumMarkers	Units	OrigDataRate	OrigDataStartFrame	OrigNumFrames
50.00	50.00	       4	43	mm	50.00	245	       978
Frame#	Time	Top.Head			R.Acromium			L.Acromium			Sternum			R.ASIS			L.ASIS			V.Sacral			R.Thigh.Upper			R.Thigh.Front			R.Thigh.Rear			R.Knee.Lat			R.Knee.Med			R.Shank.Upper			R.Shank.Front			R.Shank.Rear			R.Ankle.Lat			R.Midfoot.Lat			R.Toe.Lat			R.Toe.Tip			R.Toe.Med			R.Ankle.Med			R.Midfoot.Sup			R.Heel			L.Thigh.Upper			L.Thigh.Front			L.Thigh.Rear			L.Knee.Lat			L.Knee.Med			L.Shank.Upper			L.Shank.Front			L.Shank.Rear			L.Ankle.Lat			L.Midfoot.Lat			L.Toe.Lat			L.Toe.Tip			L.Toe.Med			L.Ankle.Med			L.Midfoot.Sup			L.Heel			origin1 front left			origin2 front right			origin 3 back right			origin 4 back leftt			
		X1	Y1	Z1	X2	Y2	Z2	X3	Y3	Z3	X4	Y4	Z4	X5	Y5	Z5	X6	Y6	Z6	X7	Y7	Z7	X8	Y8	Z8	X9	Y9	Z9	X10	Y10	Z10	X11	Y11	Z11	X12	Y12	Z12	X13	Y13	Z13	X14	Y14	Z14	X15	Y15	Z15	X16	Y16	Z16	X17	Y17	Z17	X18	Y18	Z18	X19	Y19	Z19	X20	Y20	Z20	X21	Y21	Z21	X22	Y22	Z22	X23	Y23	Z23	X24	Y24	Z24	X25	Y25	Z25	X26	Y26	Z26	X27	Y27	Z27	X28	Y28	Z28	X29	Y29	Z29	X30	Y30	Z30	X31	Y31	Z31	X32	Y32	Z32	X33	Y33	Z33	X34	Y34	Z34	X35	Y35	Z35	X36	Y36	Z36	X37	Y37	Z37	X38	Y38	Z38	X39	Y39	Z39	X40	Y40	Z40	X41	Y41	Z41	X42	Y42	Z42	X43	Y43	Z43	

245	4.880	-247.08780	243.14926	1620.92200	-403.06995	57.18103	1374.51257	-398.95029	412.18265	1375.16125	-468.82452	236.07794	1189.57458	-671.50574	128.04349	1008.41852	-634.85205	347.69467	1003.94720	-841.39349	257.58072	1084.10193	-759.15253	83.00337	828.67108	-663.04602	128.58879	799.24664	-756.47797	95.88783	711.92078	-748.56537	115.98573	594.21478	-716.74933	221.39040	553.55865	-763.57129	114.98371	528.17303	-684.08319	164.26595	526.93842	-761.83801	106.35715	476.41229	-697.41211	135.22984	210.29674	-617.47443	76.72784	164.81435	-571.25122	54.55448	162.72098	-495.61444	97.51354	160.41173	-537.30261	148.72740	164.05775	-650.29529	211.44693	224.47913	-600.99445	186.10783	173.56021	-727.97247	202.23567	168.51390	-726.58160	443.32379	855.07507	-641.86530	384.85214	816.55664	-730.82495	438.17871	736.08978	-725.20026	419.27719	599.03094	-715.85315	310.67801	560.76556	-734.24744	423.88229	551.99280	-675.52740	365.76370	535.08813	-775.06696	431.57486	480.99881	-682.26044	424.66824	214.08942	-579.15717	465.37064	164.57292	-540.19702	474.75644	159.41939	-485.96243	416.88284	166.73956	-526.56030	381.44589	176.59926	-654.05115	331.88861	210.81636	-598.60760	347.58139	172.00845	-736.01062	356.77289	161.22066	-444.08051	448.56485	146.45197	-450.46295	75.00627	143.31801	-806.56451	82.55460	141.17340	-800.05267	456.74249	145.06696	
246	4.900	-257.24301	243.36240	1632.19263	-407.85718	57.46356	1382.42920	-403.48785	412.60916	1382.82837	-469.27225	236.37273	1195.76001	-668.98462	128.16748	1009.62537	-632.62646	347.73590	1005.28839	-839.48993	257.67706	1083.75110	-756.64728	83.06055	829.14648	-660.73364	128.57809	799.50110	-754.42828	95.99721	712.23541	-747.05524	116.10260	594.54266	-715.25433	221.43646	553.75574	-762.30188	115.09043	528.52515	-682.80902	164.21083	526.99896	-760.76862	106.42686	476.67404	-697.35822	135.26082	210.31732	-617.50146	76.76635	164.82307	-571.29211	54.58395	162.72687	-495.61557	97.48803	160.39859	-537.28436	148.65979	164.09334	-650.03540	211.55811	224.42915	-601.00446	186.08157	173.45361	-727.88300	202.30762	168.51904	-724.31378	443.32138	855.41357	-639.61334	385.03922	816.77014	-728.83228	438.20462	736.47400	-723.68597	419.33853	599.29102	-714.38940	310.57123	561.01575	-732.90320	423.93933	552.30988	-674.21149	365.76801	535.18011	-773.96686	431.50638	481.40057	-682.07355	424.49527	214.06299	-579.14246	465.33603	164.60710	-540.19690	474.75476	159.41591	-485.96591	416.91306	166.72958	-526.54327	381.47809	176.70593	-653.92212	331.86365	210.82594	-598.52283	347.70889	172.05550	-736.08307	356.74835	161.22856	-444.09482	448.54443	146.41386	-450.47314	75.00451	143.31219	-806.57867	82.49840	141.23206	-800.06177	456.75986	145.07291	
247	4.920	-267.63480	243.58511	1643.23364	-412.71860	57.74280	1390.21497	-408.13702	413.04800	1390.39832	-469.75635	236.58563	1201.88293	-666.39471	128.23962	1010.85327	-630.34991	347.76532	1006.65027	-837.49829	257.78516	1083.41040	-754.04822	83.05832	829.63269	-658.31921	128.54305	799.76813	-752.32617	96.09470	712.55139	-745.46429	116.20334	594.88995	-713.71729	221.44780	553.92242	-760.97845	115.18790	528.87201	-681.44641	164.19815	527.08868	-759.62341	106.48166	476.95438	-697.28131	135.33029	210.32805	-617.50708	76.79025	164.84662	-571.33533	54.63618	162.72610	-495.61172	97.46637	160.38823	-537.26813	148.60164	164.13268	-649.75134	211.70430	224.35168	-600.90936	186.15852	173.43559	-727.77759	202.38368	168.52705	-721.97058	443.26987	855.76599	-637.31750	385.18213	816.98163	-726.76245	438.18680	736.85736	-722.11273	419.38120	599.56360	-712.95410	310.52115	561.11908	-731.52771	424.01508	552.63086	-672.90619	365.75848	535.20624	-772.83191	431.45316	481.82086	-681.91882	424.35193	214.03783	-579.11829	465.28198	164.64809	-540.19885	474.74976	159.40590	-485.94653	416.91705	166.73520	-526.49402	381.51068	176.85988	-653.81158	331.83499	210.82361	-598.43585	347.82495	172.05333	-736.21173	356.75903	161.23100	-444.11069	448.51886	146.40051	-450.47385	75.00595	143.30038	-806.59918	82.44748	141.27399	-800.03760	456.79016	145.09428	
248	4.940	-278.24582	243.84512	1654.01831	-417.62375	58.02151	1397.83655	-412.88031	413.51083	1397.85364	-470.29398	236.78671	1207.93921	-663.74738	128.26314	1012.10455	-628.01001	347.77267	1007.99829	-835.46814	257.87170	1083.07275	-751.39642	83.02636	830.09100	-655.79785	128.48492	800.04688	-750.15710	96.19343	712.90771	-743.79022	116.27002	595.25531	-712.15173	221.44273	554.08490	-759.60474	115.28259	529.21027	-679.98285	164.20943	527.19525	-758.39746	106.52891	477.27625	-697.17914	135.44815	210.33752	-617.49500	76.79792	164.89127	-571.36920	54.70776	162.72795	-495.60403	97.44833	160.38037	-537.25122	148.56255	164.17247	-649.46680	211.87683	224.22417	-600.73462	186.32947	173.47861	-727.65259	202.47049	168.54845	-719.55994	443.16974	856.12518	-634.96106	385.29272	817.18323	-724.64496	438.07529	737.22260	-720.50269	419.39984	599.85815	-711.57977	310.53165	561.10144	-730.12921	424.05316	552.93103	-671.60950	365.71490	535.17963	-771.67480	431.39481	482.24625	-681.78644	424.23416	214.02637	-579.08606	465.23416	164.69659	-540.20416	474.74194	159.38992	-485.89032	416.89679	166.76268	-526.41754	381.52817	177.01680	-653.71130	331.79556	210.80788	-598.32764	347.90033	172.01808	-736.34662	356.77808	161.25369	-444.13275	448.49969	146.41342	-450.46448	75.00853	143.28841	-806.61707	82.41008	141.29439	-799.99194	456.82568	145.12386	
